<svg xmlns="http://www.w3.org/2000/svg" data-name="Layer 1" viewBox="0 0 100 125" x="0px" y="0px"><title>Artboard 15</title><path d="M76.3,29.2a3.06,3.06,0,0,1,1.78-2,2.92,2.92,0,0,1,2.54.13,15,15,0,0,1,7.66,13.9A2.92,2.92,0,0,1,87,43.47l-.3.19a3.05,3.05,0,0,1-2.33.26l-.21-.06a3,3,0,0,1-2.1-3,8.77,8.77,0,0,0-4.4-8,3,3,0,0,1-1.46-3.4Zm7.28-12.84a3,3,0,0,0-2.49.07,3.07,3.07,0,0,0-1.61,1.94l0,.11a3,3,0,0,0,1.73,3.58A19.8,19.8,0,0,1,93,43.64,3,3,0,0,0,95.18,47l.12,0a3,3,0,0,0,2.32-.26l.15-.09a3,3,0,0,0,1.37-2.06A26,26,0,0,0,83.59,16.36ZM9.44,85.7.93,70.27A3.49,3.49,0,1,1,7,66.9l.55,1L52.9,17.27l-1.43-2.6a3.49,3.49,0,0,1,6.11-3.36l32,58a3.49,3.49,0,1,1-6.11,3.36L81.7,69.55,56.12,73.84A14.66,14.66,0,0,1,28.76,82.9L26.5,78.81l-11.81,2,.85,1.55A3.49,3.49,0,0,1,9.44,85.7ZM49.25,75,33.79,77.59l1.07,2A7.69,7.69,0,0,0,49.25,75Zm-31-6.85,40-30.43a2,2,0,0,0,.53-2.52l-4-7.23a1.19,1.19,0,0,0-1.93-.22L17.49,67.31A.58.58,0,0,0,18.26,68.15Z"/><text x="0" y="115" fill="#000000" font-size="5px" font-weight="bold" font-family="'Helvetica Neue', Helvetica, Arial-Unicode, Arial, Sans-serif">Created by Gregor Cresnar</text><text x="0" y="120" fill="#000000" font-size="5px" font-weight="bold" font-family="'Helvetica Neue', Helvetica, Arial-Unicode, Arial, Sans-serif">from the Noun Project</text></svg>