<svg xmlns="http://www.w3.org/2000/svg" xmlns:xlink="http://www.w3.org/1999/xlink" version="1.1" x="0px" y="0px" viewBox="0 0 96.1 118.75" enable-background="new 0 0 96.1 95" xml:space="preserve"><g><path d="M54.7,10.2L54.7,10.2L54.7,10.2c0-1.3-1-2.3-2.2-2.4l0,0c0,0-0.3,0-0.6,0C50.3,7.8,46,8,41,9.5l0,0   c-2.5,0.7-5.2,1.8-7.7,3.4l0,0c-2.6,1.6-5,3.7-7,6.5l0,0c-0.3,0.4-0.4,0.9-0.4,1.3c0,0.7,0.3,1.4,0.9,1.8l0,0   c0.4,0.3,0.9,0.4,1.3,0.4c0.7,0,1.4-0.3,1.8-0.9l0,0c1.6-2.2,3.6-3.9,5.7-5.3c3.2-2,6.8-3.1,9.8-3.7l0,0c3-0.6,5.5-0.7,6.5-0.7h0   c0.2,0,0.3,0,0.4,0l0.1,0l0,0l0,0l0.1,0C53.7,12.4,54.7,11.4,54.7,10.2z"/><path d="M21.7,17.5L21.7,17.5c0.4,0.3,0.9,0.5,1.4,0.5c0.7,0,1.4-0.3,1.8-0.9l0,0c4.1-5.5,9.7-8.4,14.9-10   c5.1-1.6,9.8-1.8,11.7-1.8h0c0.3,0,0.5,0,0.7,0l0.2,0l0,0l0,0v0l0.1,0c1.2,0,2.2-0.9,2.3-2.1l0,0l0-0.1c0-1.2-0.9-2.2-2.1-2.3l0,0   c0,0-0.4,0-1.2,0c-2.2,0-7.3,0.2-13.1,2c-5.8,1.8-12.3,5.2-17.2,11.6c-0.3,0.4-0.5,0.9-0.5,1.4C20.8,16.3,21.1,17,21.7,17.5z"/><polygon points="21.3,14.3 21.3,14.3 21.3,14.3  "/><polygon points="84.8,44.3 84.8,44.3 84.8,44.3  "/><path d="M87.6,49.1L87.6,49.1c0-1.7-0.1-2.8-0.2-2.9l0,0c-0.2-1.1-1.1-1.9-2.2-1.9c-0.1,0-0.2,0-0.3,0c-1.1,0.2-1.9,1.1-1.9,2.2   c0,0.1,0,0.1,0,0.2c0,0,0,0.1,0,0.1c0,0,0,0,0,0.1l0,0c0,0,0.1,0.8,0.1,2.2l0,0c0,2.1-0.3,5.4-1.5,9.2c-1.3,3.8-3.5,8.1-7.5,12.1   l0,0c-0.4,0.4-0.7,1-0.7,1.6c0,0.6,0.2,1.2,0.7,1.6l0,0c0.4,0.4,1,0.7,1.6,0.7c0.6,0,1.2-0.2,1.6-0.7c4.6-4.6,7.2-9.5,8.6-13.9   C87.3,55.4,87.6,51.6,87.6,49.1z"/><polygon points="25.8,30.2 25.8,30.2 25.8,30.2  "/><polygon points="9.5,86.2 9.5,86.2 9.5,86.2  "/><polygon points="66,24.2 66,24.2 66,24.2  "/><polygon points="39.8,56.8 39.8,56.8 39.8,56.8  "/><path d="M74,57.2C74,57.2,74,57.2,74,57.2L74,57.2L74,57.2L74,57.2L74,57.2L74,57.2c0-1.9-0.7-3.8-2.1-5.2l-0.5-0.5   c-0.7-0.7-1.5-1.2-2.4-1.6l1.1-1.1c1.6-1.6,2.4-3.7,2.5-5.8c0,0,0,0,0-0.1c0,0,0,0,0,0v0c0,0,0,0,0,0l0,0v0h0l0,0l0,0   c0-2.1-0.8-4.3-2.5-5.9c-0.7-0.7-1.5-1.2-2.4-1.6c1.1-1.3,1.7-3,1.7-4.6c0,0,0-0.1,0-0.1c0,0,0,0,0,0v0l0,0l0,0l0-0.1l0,0   c0-1.8-0.7-3.7-2.1-5.1l0,0L66,24.2c-1.4-1.4-3.3-2.1-5.2-2.1c-1.6,0-3.1,0.5-4.4,1.5c-0.4-0.9-0.9-1.7-1.6-2.4l0,0   c-1.4-1.4-3.3-2.1-5.2-2.1c-1.9,0-3.8,0.7-5.2,2.1l0,0L26.6,38.9c0.4-1.3,0.7-2.5,0.7-3.8v0l0,0l0,0c0-1.7-0.5-3.4-1.5-4.9   c-1-1.5-2.5-2.6-4.3-3.4l-0.1,0l-0.2-0.1l0,0c-0.4-0.1-0.8-0.2-1.3-0.2c-1.4,0-2.8,0.8-3.5,2.1c0,0,0,0,0,0l0,0l0,0   c-0.2,0.3-2.9,5.1-6,11.1c-1.6,3.1-3.3,6.5-4.8,9.8l0,0c-1.5,3.3-2.8,6.4-3.6,9.1l0,0c-0.1,0.2-1,3.1-1,7.4l0,0   c0,2.7,0.4,6.1,1.7,9.6l0,0c1.3,3.5,3.4,7.3,6.9,10.7c3,3,6.4,5.1,9.8,6.4c3.4,1.3,6.8,1.8,10,1.8c3.4,0,6.6-0.6,9.2-1.5l0,0   c2.6-0.9,4.8-2.1,6.2-3.5l0,0l27-27C73.2,60.9,73.9,59.1,74,57.2C74,57.2,74,57.2,74,57.2z M20.9,88.3c-2.8-1.1-5.6-2.7-8.2-5.3   c-3-3-4.8-6.1-5.9-9.1c-1.1-2.9-1.4-5.7-1.4-8.1c0-1.8,0.2-3.4,0.4-4.4c0.1-0.5,0.2-0.9,0.3-1.2l0,0c0-0.1,0.1-0.2,0.1-0.3l0-0.1   l0,0l0,0l0,0c0.7-2.3,1.9-5.3,3.4-8.5c2.2-4.8,4.8-9.9,6.9-13.9l0,0c1.1-2,2-3.6,2.6-4.8c0.3-0.6,0.6-1,0.8-1.4l0,0   c0-0.1,0.1-0.1,0.1-0.2c0.9,0.5,1.5,1,1.9,1.6c0.5,0.7,0.7,1.4,0.7,2.3l0,0c0,1.1-0.3,2.4-1.1,3.9l0,0l-4.8,9.7   c-0.2,0.3-0.2,0.7-0.2,1c0,0.7,0.3,1.4,1,1.9c0.4,0.3,0.9,0.4,1.3,0.4c0.6,0,1.2-0.2,1.6-0.7l0,0l27-27l0,0c0.6-0.5,1.2-0.8,2-0.8   c0.7,0,1.4,0.3,2,0.8c0.5,0.5,0.8,1.2,0.8,2c0,0.7-0.3,1.4-0.8,2l0,0L31.3,48.4c-0.4,0.4-0.7,1-0.7,1.6c0,0.6,0.2,1.2,0.7,1.6   c0.4,0.4,1,0.7,1.6,0.7c0.6,0,1.2-0.2,1.6-0.7l20.2-20.2l4.1-4.1c0.6-0.5,1.2-0.8,2-0.8c0.7,0,1.4,0.3,2,0.8l1.3,1.3   c0.5,0.6,0.8,1.2,0.8,2c0,0.7-0.3,1.4-0.8,2l-4.3,4.3L51,45.6L39.8,56.8c-0.4,0.4-0.7,1-0.7,1.6c0,0.6,0.2,1.2,0.7,1.6   c0.4,0.4,1,0.7,1.6,0.7c0.6,0,1.2-0.2,1.6-0.7l0,0l1.1-1.1c0,0,0,0,0,0l18.8-18.8l0,0c0.6-0.5,1.2-0.8,2-0.8c0.7,0,1.4,0.3,2,0.8   c0,0,0,0,0,0c0.8,0.8,1.1,1.7,1.1,2.7c0,1-0.4,2-1.1,2.7l0,0L61,51.5c0,0,0,0,0,0L46.4,66l0,0l-1.6,1.6l0,0c-0.4,0.4-0.7,1-0.7,1.6   c0,0.6,0.2,1.2,0.7,1.6c0.4,0.4,1,0.7,1.6,0.7c0.6,0,1.2-0.2,1.6-0.7l1-1l12-12l3.1-3.1l0,0c0.6-0.5,1.2-0.8,2-0.8   c0.7,0,1.4,0.3,2,0.8l0,0l0.5,0.5l0,0c0.5,0.6,0.8,1.2,0.8,2c0,0.7-0.3,1.4-0.8,2l0,0l-27,27l0,0c-0.3,0.3-0.9,0.8-1.7,1.2   c-0.8,0.4-1.7,0.9-2.8,1.2l0,0c-2.2,0.7-4.9,1.2-7.8,1.2h0C26.6,89.8,23.7,89.4,20.9,88.3z M2,58.5L2,58.5C2,58.5,2,58.5,2,58.5   L2,58.5z"/><polygon points="44.9,70.8 44.9,70.8 44.9,70.8  "/><polygon points="92.4,43.6 92.4,43.6 92.4,43.6  "/><polygon points="95,45.5 95,45.5 95,45.5  "/><path d="M95,45.5c-0.2-1.1-1.1-1.9-2.2-1.9c-0.1,0-0.2,0-0.3,0c-1.1,0.2-1.9,1.1-1.9,2.2c0,0,0,0.1,0,0.2h0v0l0,0.2l0,0   c0,0,0.1,0.8,0.1,2.2c0,2.3-0.3,6.2-2,10.9C87,64,83.9,69.4,78.5,74.9l0,0c-0.4,0.4-0.7,1-0.7,1.6c0,0.6,0.2,1.2,0.7,1.6   c0.4,0.4,1,0.7,1.6,0.7c0.6,0,1.2-0.2,1.6-0.7c5.9-5.9,9.3-12,11.2-17.3c1.9-5.3,2.2-9.7,2.2-12.4C95.1,46.7,95,45.7,95,45.5z"/></g><text x="0" y="110" fill="#000000" font-size="5px" font-weight="bold" font-family="'Helvetica Neue', Helvetica, Arial-Unicode, Arial, Sans-serif">Created by Savannah Vize</text><text x="0" y="115" fill="#000000" font-size="5px" font-weight="bold" font-family="'Helvetica Neue', Helvetica, Arial-Unicode, Arial, Sans-serif">from the Noun Project</text></svg>